<svg width="200px" height="52px" viewBox="56 187 200 52" version="1.1" xmlns="http://www.w3.org/2000/svg" xmlns:xlink="http://www.w3.org/1999/xlink">
    <g id="mustache" stroke="none" stroke-width="1" fill="none" fill-rule="evenodd" transform="translate(56.000000, 187.000000)">
        <g id="Group" transform="translate(99.544364, 26.325609) scale(1, -1) translate(-99.544364, -26.325609) translate(0.032169, 0.959756)" fill="#000000">
            <path d="M73.2060239,50.5984061 C69.5065837,50.1926792 65.464007,49.1249771 61.7002287,47.5447778 C57.1429473,45.644268 52.7786802,43.1244908 45.2725696,38.0635825 C43.385319,36.7823399 40.8546874,35.0953705 39.6429867,34.2945938 C32.1261532,29.3404558 26.8289837,26.9381259 22.1108571,26.3188586 C19.6552866,25.998548 18.486478,26.1480263 16.9101948,26.9701569 C14.93716,27.995151 13.532445,29.7995677 12.9962943,31.9670031 C12.6102657,33.5578793 12.6102657,35.9815633 12.9962943,37.4870234 C13.5860601,39.771906 15.1516203,41.736478 17.2211622,42.8041802 C18.4543089,43.4341245 19.3550422,43.679696 20.7275881,43.7437581 C23.1617126,43.8612053 25.1347473,43.0711057 26.8718758,41.2773661 C27.4294726,40.7008069 27.6117638,40.5726826 27.8905622,40.5726826 C28.4159899,40.5726826 28.7484034,40.9784095 28.6733423,41.5122606 C28.5446661,42.4838695 27.4723646,44.2455781 26.1963258,45.5695288 C24.7701648,47.0536348 23.1402665,47.9825357 21.0921706,48.5057098 C19.8697469,48.8153434 17.103209,48.8366975 15.7306631,48.5484179 C10.5085548,47.4593617 6.54103919,44.8007832 3.61365608,40.4338814 C-0.71844201,33.9742832 -1.17953166,25.8277156 2.39123236,18.6954651 C5.1256012,13.2181529 8.99660964,9.54525744 15.3231885,6.40621305 C21.5532603,3.32055376 29.1022629,1.28124261 37.4983837,0.437757892 C50.3231097,-0.864838761 63.5767564,0.91822387 75.8867777,5.60543642 C83.8325318,8.63771059 92.0249153,13.3249231 98.6624617,18.652757 L99.4988568,19.3254094 L99.8956084,19.0050987 C101.815028,17.4142225 106.114957,14.3605942 108.645589,12.7910721 C126.746038,1.5695222 148.663881,-2.51977713 168.962548,1.54816815 C180.125207,3.79034272 188.928803,8.17859866 193.443192,13.7733581 C197.056848,18.2470302 198.986991,23.3933546 198.986991,28.5823872 C198.986991,34.1771466 196.820942,39.5049805 192.982102,43.3487083 C190.547978,45.7937463 188.210361,47.1924361 185.036348,48.099983 C180.060869,49.5307039 175.964677,48.7192502 172.919341,45.7083301 C171.696917,44.4911496 170.260033,42.1528819 170.24931,41.3414282 C170.24931,40.9890865 170.7104,40.5726826 171.096428,40.5726826 C171.364504,40.5726826 171.589687,40.732838 172.265237,41.4054903 C173.766459,42.9109504 175.407081,43.6476649 177.43373,43.7544351 C181.937397,43.9679756 185.626114,40.8182541 186.237326,36.2484888 C186.398171,35.0419854 186.301664,33.2375687 186.012142,32.0310652 C185.336592,29.2123315 183.202712,27.0342191 180.425452,26.3188586 C178.313018,25.7743305 173.862966,26.6391693 169.766775,28.3902008 C166.024442,29.9917541 162.528739,32.1164814 153.253331,38.3838932 C144.825042,44.0747458 139.80667,46.7973863 134.273595,48.6872192 C130.038004,50.1179401 126.585193,50.7158533 122.360325,50.7158533 C116.698573,50.7158533 111.326342,49.6908592 106.962075,47.7796723 C104.624458,46.7546782 102.31901,45.2278641 100.410313,43.4554785 L99.4774108,42.5799627 L98.4801704,43.5195406 C94.5769929,47.2458212 89.3870536,49.4132566 82.0739574,50.4062197 C80.2081527,50.6517912 74.8037531,50.7799154 73.2060239,50.5984061 L73.2060239,50.5984061 Z" id="Shape"></path>
        </g>
    </g>
</svg>
